<svg xmlns="http://www.w3.org/2000/svg"
     width="24"
     height="24"
     viewBox="0 0 300 300">

  <!-- Background -->
  <rect width="300" height="300" rx="" fill="#a8200d"/>

  <!-- Centered icon -->
  <g transform="translate(30 30) scale(0.95)">
    <path d="M100.051 76.1144C100.051 67.5042 92.9902 60.4438 84.38 60.4438C75.7698 60.4438 68.7095 67.5042 68.7095 76.1144C68.7095 84.7245 75.7698 91.7849 84.38 91.7849C92.9902 91.7849 100.051 84.7245 100.051 76.1144Z" fill="#ffffff"/>
    <path d="M189.079 76.1144C189.079 67.5042 182.018 60.4438 173.408 60.4438C164.798 60.4438 157.738 67.5042 157.738 76.1144C157.738 84.7245 164.798 91.7849 173.408 91.7849C182.018 91.7849 189.079 84.7245 189.079 76.1144Z" fill="#ffffff"/>
    <path d="M252.967 236.435H234.713V222.143H252.967C256.239 222.143 258.822 219.56 258.822 216.288C258.822 213.016 256.239 210.433 252.967 210.433H234.713V208.366C234.713 205.094 232.13 202.511 228.859 202.511C214.221 202.511 203.717 209.055 199.928 219.904C199.412 219.732 198.895 219.56 198.206 219.56H19.6312V19.6312H235.402V157.394C235.402 162.732 239.88 167.21 245.218 167.21C250.556 167.21 255.033 162.905 255.033 157.394V9.8156C255.033 4.47729 250.556 0 245.218 0H9.8156C4.47729 0 0 4.30509 0 9.8156V229.375C0 234.713 4.30509 239.191 9.8156 239.191H198.206C198.723 239.191 199.24 239.019 199.756 238.846C204.061 251.417 216.804 256.239 228.859 256.239C232.13 256.239 234.713 253.656 234.713 250.384V248.318H252.967C256.239 248.318 258.822 245.734 258.822 242.463C258.822 239.191 256.239 236.435 252.967 236.435ZM223.004 244.012C216.632 242.807 209.916 239.191 209.916 229.375C209.916 219.387 216.632 215.943 223.004 214.738V244.012Z" fill="#ffffff"/>
    <path d="M131.736 164.283C114.343 164.283 100.05 161.7 99.1891 161.7C93.3342 160.666 89.5457 155.156 90.5789 149.301C91.6121 143.446 96.9504 139.657 102.978 140.691C103.322 140.691 132.597 145.857 155.5 140.691C161.355 139.485 167.037 143.102 168.243 148.784C169.448 154.639 165.832 160.322 160.149 161.527C150.678 163.594 140.862 164.283 131.736 164.283Z" fill="#ffffff"/>
  </g>
</svg>
